<?xml version="1.0" standalone="no"?>
<svg
  width="600"
  height="600"
  viewBox="0 0 600 600"
  xmlns="http://www.w3.org/2000/svg"
>
  <g transform="translate(300,300)">
    <path d="M135,-164.3C167.3,-162.3,180.7,-112.7,176.3,-70.5C171.8,-28.2,149.6,6.6,146,56.6C142.4,106.6,157.3,171.8,136.1,196.8C114.8,221.7,57.4,206.3,6.9,196.9C-43.7,187.5,-87.4,183.9,-101.5,156.7C-115.6,129.4,-100.1,78.5,-117.7,35.6C-135.4,-7.3,-186.1,-42.1,-178.8,-56.2C-171.6,-70.2,-106.4,-63.4,-66.9,-63.1C-27.4,-62.8,-13.7,-68.9,18.8,-94.8C51.3,-120.7,102.7,-166.3,135,-164.3Z" fill="#ff6900" />
  </g>
</svg>
    