<?xml version="1.0" standalone="no"?>
<svg
  width="600"
  height="600"
  viewBox="0 0 600 600"
  xmlns="http://www.w3.org/2000/svg"
>
  <g transform="translate(300,300)">
    <path d="M137.8,-176.1C174.1,-133.8,195.9,-86.1,207.1,-34.7C218.4,16.7,219.2,71.9,194.2,109.3C169.2,146.7,118.5,166.4,71.1,174.6C23.7,182.9,-20.3,179.8,-61.7,166.2C-103.2,152.6,-142.1,128.6,-172.6,91.8C-203.1,55.1,-225.1,5.8,-214.5,-34.9C-203.8,-75.5,-160.4,-107.5,-119.2,-148.9C-78,-190.3,-39,-241.1,5.9,-248.2C50.8,-255.2,101.6,-218.4,137.8,-176.1Z" fill="#f0f8ea" />
  </g>
</svg>
    